<svg xmlns="http://www.w3.org/2000/svg" viewBox="0 0 60 60" fill="#000000" id="Chess-Knight--Streamline-Tabler-Filled" height="60" width="60"><desc>Chess Knight Streamline Icon: https://streamlinehq.com</desc><path d="m22.3975 4.975 -0.3675 0.07 -0.28750000000000003 0.07250000000000001a2.5 2.5 0 0 0 -1.615 3.175L22 13.905000000000001 14.9625 18.2425a5 5 0 0 0 -1.6375000000000002 6.8774999999999995l0.22249999999999998 0.3325A5 5 0 0 0 17.5825 27.5l3.9074999999999998 -0.0025 -4.035 11.685A2.5 2.5 0 0 0 19.8175 42.5h19.9025a2.5 2.5 0 0 0 2.5 -2.445l0.28 -12.5c0 -9.567499999999999 -3.8874999999999997 -17.195 -11.675 -19.915l-5.9975000000000005 -2.0749999999999997 -0.9375 -0.3025 -0.645 -0.185L22.9075 5l-0.2525 -0.0325 -0.1375 -0.0025 -0.12 0.0075z" stroke-width="2.5"></path><path d="M45 45H15a2.5 2.5 0 0 0 -2.5 2.5 5 5 0 0 0 5 5h25a5 5 0 0 0 4.9675 -4.42l0.027499999999999997 -0.43499999999999994A2.5 2.5 0 0 0 45 45z" stroke-width="2.5"></path></svg>