<svg xmlns="http://www.w3.org/2000/svg" viewBox="0 0 60 60" fill="#000000" id="Chess-Bishop--Streamline-Tabler-Filled" height="60" width="60"><desc>Chess Bishop Streamline Icon: https://streamlinehq.com</desc><path d="M30 5a5 5 0 0 1 3.465 8.605c1.615 0.7000000000000001 3.065 1.55 4.35 2.5424999999999995l-9.5825 9.585 -0.20750000000000002 0.235a2.5 2.5 0 0 0 3.5075000000000003 3.5075000000000003l0.235 -0.20750000000000002 9.535 -9.5325C43.745000000000005 23.11 45 27.41 45 32.5c0 4.7825 -2.945 9.305 -7.7225 9.9325l-0.5 0.05L36.25 42.5h-12.5C18.435 42.5 15 37.69 15 32.5c0 -9.200000000000001 3.9250000000000003 -15.6375 11.5325 -18.9A5 5 0 0 1 30 5z" stroke-width="2.5"></path><path d="M30 12.5v2.5" stroke-width="2.5"></path><path d="M45 45H15a2.5 2.5 0 0 0 -2.5 2.5 5 5 0 0 0 5 5h25a5 5 0 0 0 4.9675 -4.42l0.027499999999999997 -0.43499999999999994A2.5 2.5 0 0 0 45 45z" stroke-width="2.5"></path></svg>