<svg xmlns="http://www.w3.org/2000/svg" viewBox="0 0 60 60" fill="#000000" id="Chess-Queen--Streamline-Tabler-Filled" height="60" width="60"><desc>Chess Queen Streamline Icon: https://streamlinehq.com</desc><path d="M30 5a5 5 0 0 1 3.93 8.09l1.9825000000000002 4.9575000000000005 4.255 -4.255A5.0075 5.0075 0 0 1 45 7.5a5 5 0 0 1 1.685 9.709999999999999l-4.225 23.2375a2.5 2.5 0 0 1 -2.1625 2.0349999999999997L40 42.5H20a2.5 2.5 0 0 1 -2.3899999999999997 -1.7625l-0.07 -0.29000000000000004 -4.225 -23.2375a5 5 0 1 1 6.5175 -3.4175l4.2525 4.255 1.985 -4.9575000000000005A5 5 0 0 1 30 5z" stroke-width="2.5"></path><path d="M45 45H15a2.5 2.5 0 0 0 -2.5 2.5 5 5 0 0 0 5 5h25a5 5 0 0 0 4.9675 -4.42l0.027499999999999997 -0.43499999999999994A2.5 2.5 0 0 0 45 45z" stroke-width="2.5"></path></svg>