<svg xmlns="http://www.w3.org/2000/svg" viewBox="0 0 60 60" fill="#000000" id="Chess-Rook--Streamline-Tabler-Filled" height="60" width="60"><desc>Chess Rook Streamline Icon: https://streamlinehq.com</desc><path d="M35 7.5a2.5 2.5 0 0 1 2.4825 2.2075L37.5 10v5h4.13l0.905 -5.41A2.5 2.5 0 0 1 45.12 7.5l0.29000000000000004 0.0325A2.5 2.5 0 0 1 47.5 10.120000000000001l-0.0325 0.29000000000000004 -1.25 7.5a2.5 2.5 0 0 1 -2.1625 2.0725L43.75 20h-3.4575l2.1925 19.724999999999998a2.5 2.5 0 0 1 -2.1925 2.7575L40 42.5H20a2.5 2.5 0 0 1 -2.5 -2.4825l0.015 -0.29250000000000004L19.7075 20H16.25a2.5 2.5 0 0 1 -2.4 -1.795l-0.065 -0.295 -1.25 -7.5a2.5 2.5 0 0 1 4.8675 -1.105l0.0625 0.28500000000000003L18.3675 15H22.5V10a2.5 2.5 0 0 1 4.9825 -0.29250000000000004L27.5 10v5h5V10a2.5 2.5 0 0 1 2.5 -2.5z" stroke-width="2.5"></path><path d="M45 45H15a2.5 2.5 0 0 0 -2.5 2.5 5 5 0 0 0 5 5h25a5 5 0 0 0 4.9675 -4.42l0.027499999999999997 -0.43499999999999994A2.5 2.5 0 0 0 45 45z" stroke-width="2.5"></path></svg>