<svg xmlns="http://www.w3.org/2000/svg" viewBox="0 0 60 60" fill="#000000" id="Chess-King--Streamline-Tabler-Filled" height="60" width="60"><desc>Chess King Streamline Icon: https://streamlinehq.com</desc><path d="M30 5a2.5 2.5 0 0 1 2.4825 2.2075L32.5 7.5v5h5a2.5 2.5 0 0 1 0.29250000000000004 4.9825L37.5 17.5h-5v4.395a11.225000000000001 11.225000000000001 0 0 1 5.0825 -1.835l0.6 -0.045L38.75 20a11.25 11.25 0 0 1 11.25 11.25 11.259999999999998 11.259999999999998 0 0 1 -10.16 11.195l-0.5425 0.04L38.75 42.5h-17.5a11.25 11.25 0 1 1 6.2524999999999995 -20.6025L27.5 17.5H22.5a2.5 2.5 0 0 1 -0.29250000000000004 -4.9825L22.5 12.5h5V7.5a2.5 2.5 0 0 1 2.5 -2.5z" stroke-width="2.5"></path><path d="M45 45H15a2.5 2.5 0 0 0 -2.5 2.5 5 5 0 0 0 5 5h25a5 5 0 0 0 4.9675 -4.42l0.027499999999999997 -0.43499999999999994A2.5 2.5 0 0 0 45 45z" stroke-width="2.5"></path></svg>